# xmcd CD database file
#
# Track frame offsets:
#	150
#	31089
#	53832
#	72147
#	90546
#	105042
#	129891
#	154497
#	163809
#	193629
#	222627
#	240189
#
# Disc length: 3509 seconds
#
# Revision: 7
# Processed by: cddbd v1.5.2PL0 Copyright (c) Steve Scherf et al.
# Submitted via: CDex 1.79
#
DISCID=940db30c
DTITLE=Miles Davis - Doo Bop Song EP
DYEAR=1992
DGENRE=Jazz
TTITLE0=The Doo Bop Song
TTITLE1=The Doo Bop Song
TTITLE2=The Doo Bop Song
TTITLE3=The Doo Bop Song
TTITLE4=The Doo Bop Song
TTITLE5=Blow
TTITLE6=Blow
TTITLE7=Blow
TTITLE8=Blow
TTITLE9=Blow
TTITLE10=Blow
TTITLE11=Blow
EXTD=YEAR: 1992
EXTT0=
EXTT1=
EXTT2=
EXTT3=
EXTT4=
EXTT5=
EXTT6=
EXTT7=
EXTT8=
EXTT9=
EXTT10=
EXTT11=
PLAYORDER=
